<svg id="Layer_1" data-name="Layer 1" xmlns="http://www.w3.org/2000/svg" xmlns:xlink="http://www.w3.org/1999/xlink" viewBox="0 0 113.39 113.39"><defs><style>.cls-1{fill:none;}.cls-2{clip-path:url(#clip-path);}.cls-3{fill:#a31850;}</style><clipPath id="clip-path"><rect class="cls-1" x="17.19" y="14.45" width="84.5" height="84.57"/></clipPath></defs><g class="cls-2"><path class="cls-3" d="M101.33,57.82a1.38,1.38,0,0,0-.58-.88L85.3,46.4l4.46-18.15a1.38,1.38,0,0,0-1-1.67l-1.9-.47.09-.64a1.37,1.37,0,0,0-1.17-1.56L68.33,21.35l-2.76-6a1.39,1.39,0,0,0-.77-.71,1.37,1.37,0,0,0-1.06,0l-5.58,2.58L56.42,15a1.39,1.39,0,0,0-1.94-.26l-.33.26a1.37,1.37,0,0,0-1.71,0l-1.16,1L51,15.72a1.42,1.42,0,0,0-2,0l-.88.88L47,16.31a1.39,1.39,0,0,0-1,.16,1.13,1.13,0,0,0-.09.09,1.36,1.36,0,0,0-1.05.49l-.61.76-1-.13a1.31,1.31,0,0,0-.87.17,1.38,1.38,0,0,0-.64.49l-6.52,9.55-10.5,4.84A1.39,1.39,0,0,0,24,34.56l1.21,2.61-4.88,3.74a1.34,1.34,0,0,0-.53.91,1.36,1.36,0,0,0,.13.75l-.32.27a1.38,1.38,0,0,0-.16,1.95l.25.3-1.07,1.08a1.38,1.38,0,0,0,0,1.95l.62.62-1.48,1.83a1.43,1.43,0,0,0-.3,1,1.37,1.37,0,0,0,.51.92l.26.21-.8,1.17a1.34,1.34,0,0,0-.22,1,1.37,1.37,0,0,0,.57.88L33.24,66.34,28.78,84.5a1.38,1.38,0,0,0,1,1.67l1.9.47-.09.64a1.38,1.38,0,0,0,.26,1,1.39,1.39,0,0,0,.91.55L50.2,91.4l2.76,6a1.37,1.37,0,0,0,.77.72,1.45,1.45,0,0,0,1.06,0l5.58-2.58,1.75,2.28a1.37,1.37,0,0,0,1.1.55,1.34,1.34,0,0,0,.84-.29l.34-.26a1.4,1.4,0,0,0,.81.3,1.38,1.38,0,0,0,.9-.33l1.15-1,.28.28a1.37,1.37,0,0,0,1.95,0l.88-.88,1.22.3a1.29,1.29,0,0,0,.32,0,1.35,1.35,0,0,0,.71-.2s0,0,.07-.07a1.38,1.38,0,0,0,1.08-.51l.61-.76,1,.14h.2a1.95,1.95,0,0,0,1.31-.68l6.52-9.55L93.88,80a1.38,1.38,0,0,0,.68-1.83l-1.21-2.61,4.87-3.74a1.37,1.37,0,0,0,.53-.91,1.45,1.45,0,0,0-.13-.75l.32-.27A1.38,1.38,0,0,0,99.1,68l-.25-.3,1.07-1.08a1.38,1.38,0,0,0,0-1.95L99.3,64l1.48-1.84a1.37,1.37,0,0,0,.3-1,1.36,1.36,0,0,0-.51-.92l-.26-.21.8-1.17a1.45,1.45,0,0,0,.21-1Zm-14.88-29,.3.07L86,32.12Zm-54.36,55-.3-.07.78-3.18Zm31.56-66.1,1.37,3L59.93,19.5ZM41.32,21.41h0l-.41.55-4.28,5.24,0,0ZM30.59,33l-3.15,2.41-.36-.79Zm-8,10.87,1.06-.9.32-.26.24-.21,2.23-1.89.24-.21,1.09-.93,1.09-.92.92-.78.61-.51,4-3.35,1-.86,1.36-1.16,1.68-1.42,1.69-1.44,0,.16L36.77,52l-.59,2.41-.53,2.15-.39,1.61-.14.55-.06.26L25.42,47.58l-.19-.22-.68-.81-.25-.29-.66-.78-.2-.23-.07-.08-.65-.76-.18-.22-.11-.13ZM25.7,55.2l-3.76-3-1.07-.87-.09-.07.43-.53.48-.6.38-.48.71-.88.83,1,8,9.4,2.16,2.55ZM54.89,95l-1.37-3,5.08,1.25Zm20.43-9.44,0,.41-.05.44-.11.78-.06.39,0,.34-.08.55,0,.34,0,.11-.13.94h0l-.05.34,0,.32-.09.65-.14,1v0h0l-.3,0L73.3,92h-.07l-.29,0-.24,0h0l-.52-.07-.82-.12-.21-.06L71,91.58h0l-.71-.07h-.06l-.88-.12h-.07l-.89-.13h-.07L66.72,91l-1.15-.17-.35-.05-1-.15-1.29-.19-1.34-.19-.95-.13-1-.15-.12,0-2.06-.3-1.73-.25L52.89,89l-.8-.12-3.26-.47L38.56,86.9l-4-.59.05-.38.2-1.38L37.07,69l.14-.94.08-.58.08-.57.07-.45,0-.33,0-.17,0-.24.07-.51.05-.33.07-.46v-.11l.07-.5,0-.31.38-1,.31-.57h0l.14-2.49.89-6.87,2-14.33,1.58-10.95,0-.41.06-.44.11-.78.05-.4,0-.34.08-.55.05-.34v-.11l.13-.94h0l0-.34,0-.32.09-.65.14-1v0h0l.3,0,.77.12h.07l.3,0,.23,0h0l.52.07.82.12.21.06.16.05h0l.71.07h.06l.88.12h.07l.9.13h.07l1.54.23,1.15.17.35,0,1,.15,1.29.19,1.34.2.94.14,1,.14.12,0,1.84.27.23,0,1.73.26,2.84.41.8.12,1.63.23,1.63.24L80,25.85l4,.59-.05.39-.2,1.37-2.29,15.6-.13.94-.09.57-.08.57-.07.45,0,.33,0,.18,0,.23-.07.52,0,.32-.07.46,0,.11-.07.5,0,.31-.37,1-.31.57h0l-.14,2.49-.9,6.87-2,14.32Zm1.89,5.81.42-.56,4.28-5.25,0,0ZM88,79.71,91.1,77.3l.36.8Zm8-10.87-1.06.89-.31.27-.24.2-2.23,1.9-.25.2-1.09.93-1.09.92-.92.78-.6.51-4,3.35-1,.87-1.36,1.15L80.1,82.24l-1.68,1.43,0-.16,3.33-22.75.59-2.41.53-2.15.39-1.6.13-.55.07-.26,9.63,11.37.19.23.68.8.24.29.67.79.2.23.07.07.65.77.18.22.11.13Zm1.41-6.79-.49.6-.38.48-.71.88-.83-1-8-9.41L84.8,51.08l8,6.47,3.76,3,1.08.87.09.07Zm0,0"/></g><path class="cls-3" d="M74.45,41.71h0s.29-.09.29-.14.14-.09.14-.13a1.41,1.41,0,0,0-.06-.45,1.28,1.28,0,0,0-.82-.72s0,0,0,0a.89.89,0,0,1-.12,0h-.14l-.25,0h-.05L72,39.94l-.35-.05-.51-.07-.46-.07H70.6L48.14,36.37a1.38,1.38,0,0,0-.41,2.74l25.75,3.84h.21a1.36,1.36,0,0,0,.52-.11h0l0,0,.17-.1a1.26,1.26,0,0,0,.26-.21,1.37,1.37,0,0,0,.23-.32c.06-.13-.17-.26-.15-.41s-.3,0-.3-.07Zm0,0"/><path class="cls-3" d="M72.34,49.44,46.6,45.6a1.38,1.38,0,0,0-.4,2.73l25.75,3.84h.2a1.38,1.38,0,0,0,.2-2.74Zm0,0"/><path class="cls-3" d="M70.81,58.66,45.06,54.82a1.38,1.38,0,1,0-.4,2.73L70.4,61.39h.2a1.38,1.38,0,0,0,.2-2.74Zm0,0"/></svg>