<svg id="Layer_1" data-name="Layer 1" xmlns="http://www.w3.org/2000/svg" viewBox="0 0 113.39 113.39"><defs><style>.cls-1{fill:#a31850;}.cls-2{fill:#fff;}</style></defs><circle class="cls-1" cx="54.91" cy="63.52" r="36.79"/><circle class="cls-2" cx="55.17" cy="64.06" r="30.79"/><path class="cls-1" d="M57.19,73.53a3.53,3.53,0,0,1-2.29.6,4.54,4.54,0,0,1-2.35-.6c0-12.91,9.23-10.13,9.23-19.06,0-4.16-2.6-5.79-6.88-5.79A15.38,15.38,0,0,0,48,50.06a4.48,4.48,0,0,1-1.87-4.28,20.27,20.27,0,0,1,9.65-2.11C62.86,43.67,68,47,68,54.17,68,66,57.19,63.82,57.19,73.53ZM58,84.87a9.46,9.46,0,0,1-3.14.42,8.63,8.63,0,0,1-3.14-.42V79.2a8.63,8.63,0,0,1,3.14-.42A9.46,9.46,0,0,1,58,79.2Z"/><rect class="cls-1" x="45.52" y="12.77" width="20.56" height="9.55" rx="2.68" ry="2.68"/><rect class="cls-1" x="51.69" y="19.97" width="8" height="8.78"/><rect class="cls-1" x="68.84" y="27.73" width="14.09" height="7.05" rx="1.13" ry="1.13" transform="translate(31.16 -37.55) rotate(34.59)"/></svg>