<svg xmlns="http://www.w3.org/2000/svg" viewBox="0 0 113.39 113.39"><defs><style>.cls-1,.cls-3,.cls-4,.cls-5{fill:#a31850;}.cls-2{fill:#fff;}.cls-3{opacity:0.8;}.cls-4{opacity:0.6;}.cls-5{opacity:0.7;}</style></defs><g id="Layer_2" data-name="Layer 2"><path class="cls-1" d="M9.8,96.1A9.61,9.61,0,0,1,13,90.56a13.4,13.4,0,0,1,4.92-2.77s2.16-.18,1.92-3.23c-.35-.25-2.71.36-3.89-1.19-.84-1.1-2.38-3-.7-9.78s9.4-5,9.4-5,5.2,1,6.37,6.12c1.05,4.63,1.49,6.6-.47,8.6a4.33,4.33,0,0,1-4,1.45A3.76,3.76,0,0,0,28.75,88c1.91.78,7.42,3.08,8,8.13Z"/><path class="cls-2" d="M18.88,75.06a5,5,0,0,0,3.24,2.51,7.59,7.59,0,0,1-1.26-2.51,8,8,0,0,0,2.52,2.81l1.4.19s-1.84-1.61-1.91-2.23a12.4,12.4,0,0,0,2.73,2.23,5.51,5.51,0,0,0,2.14-.39s.14,4.61-.72,5.61-1.46,2.28-3.4,2.28a5.12,5.12,0,0,1-4-1.93C19.39,83,17,78.13,18.88,75.06Z"/><path class="cls-2" d="M26.09,85.14s-.12,2.7,3.59,3.72a7.93,7.93,0,0,1-6.24,2.3c-4-.25-6-1.4-6.66-2.28,0,0,3.84-.6,3.65-3.73C20.42,85.14,23.6,87.21,26.09,85.14Z"/><path class="cls-1" d="M31.7,91.92a8.61,8.61,0,0,1,5.73-4c2.66-.82,3.28-1.25,3.16-3.71a8.73,8.73,0,0,1-2-3.63s-1.09.21-1.65-3a1.18,1.18,0,0,1,.68-1.31s-1.75-4.73,1.42-7.14,8.34-1.58,9.64,0,1.84,2.56,1.63,7.22a1.59,1.59,0,0,1,.4,1.26c-.12.72-.4,2.72-1.44,3,0,0-.77,2.56-1.61,3.28A3.9,3.9,0,0,0,51.05,88a10.23,10.23,0,0,1,6.14,4.38A9.48,9.48,0,0,1,58.4,96.1h-28A16.31,16.31,0,0,1,31.7,91.92Z"/><path class="cls-2" d="M39.22,72.32s2.95,4.56,9.55,0A9.78,9.78,0,0,1,49.4,77a1.47,1.47,0,0,0-1-.19,6.28,6.28,0,0,0-3.47.07H43.41a6.5,6.5,0,0,0-3.51-.09s-1,0-1.07.21C38.83,77,37.85,74.16,39.22,72.32Z"/><path class="cls-2" d="M39.06,77.78s.24.12.3.09.09.42.13.53.17,1.1.54,1.28.29.28.68.28,1.13,0,1.34,0a1.32,1.32,0,0,0,1.16-.67,3.49,3.49,0,0,0,.28-.78,2,2,0,0,0,.24-.5c0-.09.09-.21.36-.22s.49,0,.49.07,0,.32.13.38.16.72.26.88.41.83,1.05.85,1.72,0,1.72,0a1.89,1.89,0,0,0,.71-.44,2.45,2.45,0,0,0,.3-.87c0-.13.17-.67.17-.79l.37-.17-.17.75h.47A6.29,6.29,0,0,0,50.18,77a1.26,1.26,0,0,1,.08.82,7.65,7.65,0,0,1-.62,2c-.2.22-.37.39-.63.28,0,0-1,2.95-1.92,3.85a4.29,4.29,0,0,1-5.88.17,7.53,7.53,0,0,1-2.29-4.19.42.42,0,0,1-.58.11,6.12,6.12,0,0,1-.89-2.63c0-.7.41-.58.41-.5s.72,1.66.72,1.66l.66-.21L39,77.86Z"/><path class="cls-2" d="M47.3,84.33s.19,2.33,1.44,3.12c0,0-4.73,4.91-9.36.16,0,0,1.84-.47,1.61-3.07C41,84.54,44.3,87.26,47.3,84.33Z"/><path class="cls-2" d="M39.8,77.67a1.28,1.28,0,0,1,1.13-.5c.85,0,1.66.07,1.66.07a.75.75,0,0,1,.71,1c-.18,1-.33,1.34-1.1,1.38a13.26,13.26,0,0,1-1.38,0s-.8,0-.92-.68A3.59,3.59,0,0,1,39.8,77.67Z"/><path class="cls-2" d="M45.52,77.23s.75,0,1-.05a4.45,4.45,0,0,1,1.78.16c.47.24.32.72.24,1.21s-.26.88-.67,1a4.11,4.11,0,0,1-1.88-.07,2.07,2.07,0,0,1-.84-1.2C45,77.82,44.73,77.27,45.52,77.23Z"/><path class="cls-1" d="M51.53,96.1s.26-5.24,4.58-7.18,4.29-1.45,5.1-2.39a2.65,2.65,0,0,0,.47-2.28,7.9,7.9,0,0,1-2.05-3.61s-.77.09-1.4-1.88.16-2.45.44-2.47-1.45-3.91.16-6a3.73,3.73,0,0,1,2.23-1.09,5.79,5.79,0,0,1,5.33-1.46,6.25,6.25,0,0,1,5,5.21,11.37,11.37,0,0,1,0,3.45,2.15,2.15,0,0,1,.26,2.1c-.4,1.44-.6,1.95-1.26,2.14a11.62,11.62,0,0,1-2,3.68,3.26,3.26,0,0,0,1.31,2.84c1.46.88,5.86,1.77,7.49,4.23a11.78,11.78,0,0,1,1.88,4.76Z"/><path class="cls-2" d="M59.53,88.07l.46-.14,2.73,4.32,2.25-2-4.31-2.72s1.67-.53,1.47-2.89A5,5,0,0,0,68,84.7a3.77,3.77,0,0,0,1.51,2.79l-4,2.82,2.23,1.91L70.4,88l.42.07-3,4.87-1-.89-.93,1.09.72,3H63.95l.56-3.19L63.65,92l-1,.89Z"/><path class="cls-2" d="M60.83,72.2a8,8,0,0,0,7.28,4.08,3,3,0,0,0,2.17-1c.05-.3.25,2.63-.25,3.28l.6-.11A4.79,4.79,0,0,0,71.2,77c0-.47.34,1-.39,2.52-.26.56-.68.72-.82.51,0,0-1.22,4.42-3.59,4.94s-4-.48-5.4-2.35a6.56,6.56,0,0,1-1.09-2.79s-.37.61-.75-.14-1.23-2.74-.44-2.89c.18,0,.68,1.74.91,1.72a2.51,2.51,0,0,0,.63-.21,6,6,0,0,1-.32-4.07A8.32,8.32,0,0,1,60.83,72.2Z"/><path class="cls-1" d="M73.53,96.08s1.06-4.67,3-6a7.35,7.35,0,0,1,2.66-1.36s1.85-2.34.28-7.18-.8-10,2.36-11.78c2.92-2.08,7.82-1.53,10.06.75A7.6,7.6,0,0,1,94.17,77c-.22,1.64-.84,6.26-.82,7.66.26,1.32.68,3.46,1.38,4.15a8.46,8.46,0,0,1,5.66,7.34Z"/><path class="cls-2" d="M84.06,85.16a4.94,4.94,0,0,0,5.6,0,4.24,4.24,0,0,0,3.63,3.68l-6.15,4.23s-6.44-3.81-6.65-4.21C80.49,88.86,84.62,88.1,84.06,85.16Z"/><path class="cls-2" d="M83.79,72.5s.88,2.35,2.33,3.12S89.75,78.18,90,79.2c0,0,.74-.61-1.21-2.77,0,0,1.67,1.16,1.93,2.26a6.2,6.2,0,0,1,.07,3.14,7.45,7.45,0,0,0-.6,2.21,4.25,4.25,0,0,1-4.37,1.35c-2.56-.84-3.45-3.26-3.84-4.4,0,0-1.18,0-1.46-2.14-.15-1.14.38-1.33.66-1.17C81.15,77.67,81.85,73.22,83.79,72.5Z"/><path class="cls-3" d="M33.24,30.39l.49,17.53s0,5.12,4.87,5.61,9.08.63,9.08.63l12,10.31-2.28-10,7.92.49s6.66.28,7.92-4.77,4.07-18,4.07-18,2.14-8.49-5.87-8.42S39,24.71,39,24.71,34,24.29,33.24,30.39Z"/><path class="cls-4" d="M62.54,24.36l-1.61,10s-1.26,4.77,2.95,5.4a55.38,55.38,0,0,1,8.49,2.1l-2.45,6.45,9.54-5s5.6,2.31,7.64-1.68l3-15.15s1.75-6.17-4.35-6.17H66.82A4.55,4.55,0,0,0,62.54,24.36Z"/><path class="cls-3" d="M92.86,31.05c-8.84,0-16,6.18-16,13.8a13.1,13.1,0,0,0,8,12.64h0L82.21,63.7l10.64-4.63c8.84,0,16-6.6,16-14.22S101.7,31.05,92.86,31.05Z"/><path class="cls-5" d="M32.7,66.85,20.57,59.21S8.72,61.66,3.74,51.64C0,42.73,7.39,29.27,24.71,34.1c0,0,6.64-5.12,12.19-.77s4,9.54,3,11.22c0,0,4.73,6,1,10.94s-7.82,5-11.82,3.93Z"/></g></svg>