<svg id="Layer_1" data-name="Layer 1" xmlns="http://www.w3.org/2000/svg" viewBox="0 0 113.39 113.39"><defs><style>.cls-1,.cls-3,.cls-4,.cls-5{fill:#a31850;}.cls-2,.cls-6{fill:#fff;}.cls-3{font-size:24.23px;}.cls-3,.cls-4,.cls-5{font-family:ArialRoundedMTBold, Arial Rounded MT Bold;}.cls-4{font-size:26.24px;}.cls-5{font-size:56.15px;}.cls-6{opacity:0.5;}</style></defs><path class="cls-1" d="M33.29,11a38.41,38.41,0,1,0,46.9,27.41A38.41,38.41,0,0,0,33.29,11ZM57.65,79.2A34.26,34.26,0,1,1,74.33,33.71,34.26,34.26,0,0,1,57.65,79.2Z"/><circle class="cls-2" cx="43.25" cy="48.11" r="34.26" transform="translate(-16.22 22.64) rotate(-24.86)"/><path class="cls-1" d="M63.25,79.05l-9.72,4.51a1.69,1.69,0,0,0-.82,2.23l7.89,17a1.69,1.69,0,0,0,2.23.82l9.72-4.51a1.69,1.69,0,0,0,.82-2.23l-7.89-17A1.69,1.69,0,0,0,63.25,79.05ZM71,97.16a1,1,0,0,1-.47,1.28l-3.23,1.5a1,1,0,0,1-1.28-.47l-7-15.09a1,1,0,0,1,.47-1.28l3.23-1.5a1,1,0,0,1,1.28.47Z"/><text class="cls-3" transform="translate(52.55 50.56)">to</text><text class="cls-4" transform="translate(87.23 54.95)">Z</text><text class="cls-5" transform="translate(14.86 65.52)">A</text><circle class="cls-6" cx="43.25" cy="48.11" r="34.27"/></svg>