<svg xmlns="http://www.w3.org/2000/svg" viewBox="0 0 113.39 113.39"><defs><style>.cls-1{fill:#a31850;fill-rule:evenodd;}</style></defs><g id="_10" data-name="10"><path class="cls-1" d="M97,86.26,92.38,68.72a2.9,2.9,0,0,1-.76-1.52h1.16a3,3,0,0,0,3-2.68V23a3.27,3.27,0,0,0-3-3H24.85a3,3,0,0,0-2.68,3V64.52a2.63,2.63,0,0,0,2.68,2.68H26a3.11,3.11,0,0,0-.76,1.52L20.65,86.26a3.42,3.42,0,0,0,3.44,4.59H93.54A3.43,3.43,0,0,0,97,86.26ZM67.78,39.9l-2.78,1-1,2.86-3-5.92ZM35.52,67.19h47c2.28.76,4.59,2.31,5.32,4.59l3.47,11V84a3.62,3.62,0,0,1-3.83,3.8H31A3.6,3.6,0,0,1,27.13,84V82.82l3.44-11a7.48,7.48,0,0,1,5-4.59Zm-8-41.54H90.1V61.47H27.52ZM81,67.59H37.07A6.52,6.52,0,0,0,31,72.15L27.89,82.82a2.35,2.35,0,0,0-.37,1.52,3.36,3.36,0,0,0,3.44,3H87.43a3,3,0,0,0,3-3V82.82L87.06,72.15A6.61,6.61,0,0,0,81,67.59ZM55.74,82.46h6.11a2.1,2.1,0,0,1,2.28,1.88v2.31H53.46V84.34a2.11,2.11,0,0,1,2.28-1.88ZM36.68,70.63H81.32a4.18,4.18,0,1,1,0,8.36H36.68a4.18,4.18,0,1,1,0-8.36Z"/></g></svg>