<svg id="Layer_1" data-name="Layer 1" xmlns="http://www.w3.org/2000/svg" viewBox="0 0 113.39 113.39"><defs><style>.cls-1{fill:#a31850;}.cls-2{fill:#fff;}</style></defs><path class="cls-1" d="M9.11,11.24H23.28A12.07,12.07,0,0,0,21,17.58V40.44s.37,3.73,1.37,3.73H9.11Z"/><path class="cls-1" d="M29.86,10.5H63.41s11.43,0,6.34,10.44c0,0,2.61,4.72-.12,6.77,0,0,2.86,4.54.12,7.39,0,0,4.83,7.73-5.09,9.75-.62.13-9.57,0-9.57,0S56.7,56.1,51,61.69s-12.05,0-11.93-6-.75-9-2-11l-8.2,0s-5.59,1.12-5.59-5.72V16.71S23.53,10.5,29.86,10.5Z"/><path class="cls-2" d="M27.26,17.08s-.37-2.61,3-2.61H64.66s4,2.24,0,6.21c0,0,4.47,3.85-.12,7,0,0,4.35,4,0,7.52,0,0,4.35,4.1,0,6H50.24s3.6,11.43-1.37,17.27c-4.22,4.85-8.2-1.62-5.59-4.22.75-2.11-2-12.67-6.46-12.67H27.24Z"/><path class="cls-1" d="M104.27,102.14H90.11a12.07,12.07,0,0,0,2.24-6.34V72.94S92,69.22,91,69.22h13.3Z"/><path class="cls-1" d="M83.52,102.89H50s-11.43,0-6.34-10.44c0,0-2.61-4.72.12-6.77,0,0-2.86-4.54-.12-7.39,0,0-4.83-7.73,5.09-9.75.62-.13,9.57,0,9.57,0S56.68,57.29,62.4,51.7s12.05,0,11.93,6,.75,9,2,11l8.2,0s5.59-1.12,5.59,5.72V96.68S89.86,102.89,83.52,102.89Z"/><path class="cls-2" d="M86.13,96.3s.37,2.61-3,2.61H48.73s-4-2.24,0-6.21c0,0-4.47-3.85.12-7,0,0-4.35-4,0-7.52,0,0-4.35-4.1,0-6H63.14s-3.6-11.43,1.37-17.27c4.22-4.85,8.2,1.62,5.59,4.22-.75,2.11,2,12.67,6.46,12.67h9.58Z"/></svg>