<svg id="Layer_1" data-name="Layer 1" xmlns="http://www.w3.org/2000/svg" viewBox="0 0 113.39 113.39"><defs><style>.cls-1{fill:#a31850;}</style></defs><path class="cls-1" d="M88.6,22.57c-2.18-2.22-4.24-4.17-6.12-6.28A8.75,8.75,0,0,1,80.63,13a5.67,5.67,0,0,1,2.8-6.3,5.64,5.64,0,0,1,6.86.82Q101.2,18.44,112,29.45a1.89,1.89,0,0,1,.19.3c-.18.19-.34.39-.52.57Q101.16,41,90.6,51.63a5.86,5.86,0,1,1-8.31-8.25c2.09-2.09,4.24-4.11,6.37-6.15l-.18-.36c-.33,0-.67,0-1,0-3.17,0-6.35.12-9.52,0-8.11-.37-12.89,5.09-14.36,11a26.6,26.6,0,0,0-.78,6.34c0,16.13,0,32.26,0,48.39a5.12,5.12,0,0,1-1.17,3.38,3.52,3.52,0,0,1-3,1.44c-1.33,0-2.66,0-4,0-2.54,0-3.84-1.3-3.85-3.81,0-4.36,0-8.71,0-13.07q0-17.38,0-34.77c0-8.07,1.67-15.68,6.53-22.32,4.1-5.61,9.38-9.47,16.4-10.49a45.83,45.83,0,0,1,6-.26C82.61,22.54,85.48,22.57,88.6,22.57Z"/><path class="cls-1" d="M1.2,29.55c2-1.94,4-3.8,5.95-5.73,5.32-5.33,10.59-10.7,15.9-16a5.58,5.58,0,0,1,6.08-1.54,5.65,5.65,0,0,1,4,5,5.8,5.8,0,0,1-1.84,5q-2.67,2.65-5.36,5.29a6.72,6.72,0,0,1-.9.64l.17.36c.37,0,.74.06,1.11.07,4.1,0,8.2-.08,12.28.16,5.87.34,10.66,3.11,14.86,7.28a33.21,33.21,0,0,0-6.82,10.86c-.16,0-.25,0-.29-.07a13.73,13.73,0,0,0-10.64-4c-3.13.1-6.27,0-9.41,0H25c.36.42.55.67.76.89,1.84,1.87,3.69,3.72,5.52,5.59a5.87,5.87,0,1,1-8.36,8.23L2,30.44Z"/></svg>