<svg id="Layer_1" data-name="Layer 1" xmlns="http://www.w3.org/2000/svg" viewBox="0 0 113.39 113.39"><defs><style>.cls-1,.cls-3{fill:#a31850;}.cls-2{fill:#fff;}.cls-3{stroke:#fff;stroke-miterlimit:10;stroke-width:2.83px;}</style></defs><rect class="cls-1" x="20.99" y="23.67" width="64.69" height="79.13" rx="1.7" ry="1.7"/><rect class="cls-2" x="24.37" y="26.67" width="57.94" height="72.75"/><rect class="cls-1" x="46.18" y="81.39" width="30.17" height="5.32" rx="0.34" ry="0.34"/><rect class="cls-2" x="32.7" y="20.11" width="42.11" height="13.88"/><rect class="cls-1" x="34.43" y="18.7" width="38.5" height="13.72" rx="3.4" ry="3.4"/><ellipse class="cls-1" cx="53.64" cy="17.05" rx="9.38" ry="8.9"/><circle class="cls-2" cx="53.43" cy="14.59" r="2.91"/><circle class="cls-3" cx="83.9" cy="90.14" r="15.09"/><rect class="cls-1" x="30.97" y="42.42" width="7.5" height="7.5" rx="0.71" ry="0.71"/><rect class="cls-1" x="46.18" y="43.36" width="30.17" height="5.32" rx="0.34" ry="0.34"/><rect class="cls-1" x="46.18" y="62.58" width="30.17" height="5.32" rx="0.34" ry="0.34"/><rect class="cls-1" x="30.68" y="61.08" width="7.5" height="7.5" rx="0.71" ry="0.71"/><rect class="cls-1" x="30.68" y="80.3" width="7.5" height="7.5" rx="0.71" ry="0.71"/><polygon class="cls-2" points="74.69 90.27 77.41 87.56 81.46 91.61 90.14 82.94 93.11 85.91 81.67 97.34 74.69 90.27"/></svg>