<svg id="Layer_1" data-name="Layer 1" xmlns="http://www.w3.org/2000/svg" xmlns:xlink="http://www.w3.org/1999/xlink" viewBox="0 0 113.39 113.39"><defs><style>.cls-1{fill:none;}.cls-2{clip-path:url(#clip-path);}.cls-3{fill:#a31850;}</style><clipPath id="clip-path"><rect class="cls-1" x="12.85" y="24.97" width="91.92" height="71.81"/></clipPath></defs><g class="cls-2"><path class="cls-3" d="M97.75,46.53c-.38-2.78-.43-7.57,2.16-9.17a1.59,1.59,0,0,0,.12-.11c2.11-.68,3.57-1.63,2.42-2.9L71.32,25l-50.4,7s-5.77.83-5.26,9.8c.28,4.88,1.81,7.27,3.15,8.45l-4.14,1.25c-1.14,1.27.32,2.22,2.43,2.89a.85.85,0,0,0,.12.11c2.58,1.61,2.52,6.4,2.16,9.18-9.26,2.63-5.94,3.49-5.94,3.49l2,.49C14,68.93,12.62,71.37,12.89,76c.51,9,5.25,9.59,5.25,9.59l33,10.72,49.78-12.06s3.32-.86-5.94-3.5c-.37-2.77-.43-7.56,2.16-9.17a.85.85,0,0,0,.12-.11c2.11-.68,3.57-1.62,2.42-2.89l-2.16-.66c1.45-.87,3.61-3.14,3.95-9.06.24-4.06-.83-6.44-2-7.84l4.27-1s3.33-.86-5.93-3.49ZM56.1,46.41l8.37-1.72,28.3-5.82L97,38c-1.35,2.47-1.3,5.84-1.07,8,.05.49.11.94.16,1.28l-4.61,1.14L55.75,57.32Zm-36,8.72,4.21.86,27.17,5.59,2.37.49L61,63.54l.35,10.91-36.7-9.13L21,64.42c.06-.34.11-.79.17-1.28.22-2.17.27-5.54-1.07-8ZM18.5,41.34c0-2.39.38-4.11,1.24-5a2.24,2.24,0,0,1,1.63-.68,2.53,2.53,0,0,1,.42,0L43.5,42.79l10.83,3.53-.35,11-30.4-8.52L22,48.34l-.2,0c-.13,0-3.13-.29-3.28-7ZM51.21,91.56l-32-9a.88.88,0,0,0-.2,0c-.13,0-3.14-.28-3.28-7-.05-2.39.37-4.12,1.24-5a2.22,2.22,0,0,1,1.63-.68A2.51,2.51,0,0,1,19,70h0L51.56,80.57ZM93.13,80.27c0,.49.11.94.16,1.28L53,91.58l.35-10.91,8.62-1.78,1.27.31L68,77.65l22-4.52,4.21-.86c-1.35,2.46-1.29,5.83-1.06,8Zm2.22-14.84a1,1,0,0,0-.22,0l-3,.86-29,8.11-.35-11,9.5-3.1,23-7.5a2.41,2.41,0,0,1,2.09.63c.86.88,1.29,2.6,1.24,5-.15,6.68-3.16,7-3.26,7Zm0,0"/></g></svg>