<svg id="Layer_1" data-name="Layer 1" xmlns="http://www.w3.org/2000/svg" viewBox="0 0 113.39 113.39"><defs><style>.cls-1{fill:#a31850;}</style></defs><path class="cls-1" d="M91,58.81C87,56.14,53,33,43.81,16.72l-.5-.89-1,0c-7.92-.33-14,4.25-16.69,6.61-1.07-1.07-2.17-2.19-3.29-3.34L21,17.68l-1.31,1.38c-5.17,5.37-7.46,10.38-6.82,14.88.53,3.67,3,6.84,7.23,9.23.76.43,9.54,6.39,19.05,14-1.65,1.67-7.63,5.56-9.8,7.11C26.88,66,16.72,75.22,16.72,75.22l6.56,1.53,2.29,4.46s3.1-7.63,6.53-11.4S41.5,63,41.5,63a90.54,90.54,0,0,0-5.56,9.09C33.63,76.58,33,84.35,33,84.35l4-1.29,2.74,6A84.16,84.16,0,0,1,42.26,75c1.36-4.48,4.73-8.72,6-10.21C60.31,75.43,73,88.28,75.48,90.89a11,11,0,0,0,6.06,3.6,13.75,13.75,0,0,0,2.77.31c5.23,0,10.18-3.27,13.38-9C101.4,79.18,102.45,69,96,62.27a13.07,13.07,0,0,0-5-3.46ZM39.78,52.94c-8.75-6.87-16.72-12.33-17.89-13-3.22-1.84-5-4-5.38-6.53-.43-3,1.07-6.47,4.53-10.4,8.53,8.75,15.86,15.69,22.06,21.22-2.81,4.55-3.29,7-3.31,8.71Zm5.44-11.78c-4.94-4.38-10.59-9.7-17-16.12,2.17-1.91,7-5.44,12.92-5.58,3.1,5.1,8.25,10.71,14,16.09a14.49,14.49,0,0,0-10,5.6ZM49,60.53a29.37,29.37,0,0,1,2.69-9C62.53,60.38,68.7,63.63,71.4,64.77a57.92,57.92,0,0,0,.09,16.86C65.68,75.86,57.09,67.56,49,60.53ZM94.49,84c-2.31,4.1-6.7,8.06-12.14,6.87-9.33-2.08-8.28-20.2-7.06-27l.28-1.72-1.69-.4c-.1,0-5.89-1.65-20.24-13.38,2.69-3.13,7-4.53,10.3-5.15,8.11,6.73,16.17,12.55,21,15.91l-.41.21C79,62.51,76.65,71.62,77.84,76c1.43,5.13,4.86,8.44,8.46,8.38,1.55-.07,5.32-.93,6.68-7.8l.21-1.07-.81-.69c-5.22-4.43-8.06-7.06-9.4-8.37a9.25,9.25,0,0,1,3.36-3.89c2.05-1.17,4.41-.4,7,2.26,5.17,5.37,4.19,13.72,1.14,19.2Zm-5.37-7.13c-.64,2.36-1.72,3.74-3,3.79h0c-1.55,0-3.69-2-4.7-5.65a10.44,10.44,0,0,1,.2-4.79c1.53,1.43,3.91,3.58,7.51,6.65Zm0,0"/></svg>