<svg id="Layer_1" data-name="Layer 1" xmlns="http://www.w3.org/2000/svg" xmlns:xlink="http://www.w3.org/1999/xlink" viewBox="0 0 113.39 113.39"><defs><style>.cls-1{fill:none;}.cls-2{clip-path:url(#clip-path);}.cls-3{fill:#a31850;}</style><clipPath id="clip-path"><rect class="cls-1" x="13.14" y="17.18" width="82.74" height="79.02"/></clipPath></defs><g class="cls-2"><path class="cls-3" d="M95.34,46.89A1.74,1.74,0,0,0,94,46.28H90.37V26.65a2.44,2.44,0,0,0-2.44-2.44H45.64l-3.43-5.71a2.43,2.43,0,0,0-2.09-1.19h-19a2.45,2.45,0,0,0-2.44,2.44V46.28H14.89a1.77,1.77,0,0,0-1.33.61,1.75,1.75,0,0,0-.4,1.41l6.78,44.77a1.75,1.75,0,0,0,1.73,1.49H87.23A1.75,1.75,0,0,0,89,93.06L95.74,48.3a1.75,1.75,0,0,0-.4-1.41ZM21.42,20.08H39.94l3.43,5.71A2.46,2.46,0,0,0,45.46,27H87.61V46.28H86.24V40.77H84.86V36.63H83.48V32.49H25.55v4.13H24.18v4.14H22.8v5.51H21.42Zm4.13,23.44H83.48v2.76H25.55Zm1.38-4.13H82.1v1.38H26.93Zm53.78-2.76H28.31V35.25h52.4Zm5.65,55.16H22.54L16.06,49H92.84Zm0,0"/></g><path class="cls-3" d="M50.32,84.89h29V65.59h-29Zm2.75-16.54H76.52V82.14H53.07Zm0,0"/><path class="cls-3" d="M57.21,73.86h5.52a1.38,1.38,0,0,0,0-2.76H57.21a1.38,1.38,0,0,0,0,2.76Zm0,0"/><path class="cls-3" d="M68.24,73.86h1.38a1.38,1.38,0,0,0,0-2.76H68.24a1.38,1.38,0,1,0,0,2.76Zm0,0"/><path class="cls-3" d="M72.38,76.62H57.21a1.38,1.38,0,1,0,0,2.75H72.38a1.38,1.38,0,1,0,0-2.75Zm0,0"/></svg>