<svg id="Layer_1" data-name="Layer 1" xmlns="http://www.w3.org/2000/svg" viewBox="0 0 113.39 113.39"><defs><style>.cls-1{fill:none;stroke:#a31850;stroke-miterlimit:10;stroke-width:2.83px;}</style></defs><path class="cls-1" d="M49.11,11.84H23.67a2,2,0,0,0-2,2v85.7a2,2,0,0,0,2,2H49.11a2,2,0,0,0,2-2V13.84A2,2,0,0,0,49.11,11.84ZM36.33,90.17a9.85,9.85,0,1,1,9.85-9.85A9.85,9.85,0,0,1,36.33,90.17Zm9.85-27.9a1,1,0,0,1-1,1H27a1,1,0,0,1-1-1V33.17a1,1,0,0,1,1-1H45.21a1,1,0,0,1,1,1ZM26.27,24.52h0Zm0-6.27h0Z"/><path class="cls-1" d="M45.21,32.19H27a1,1,0,0,0-1,1v29.1a1,1,0,0,0,1,1H45.21a1,1,0,0,0,1-1V33.17A1,1,0,0,0,45.21,32.19ZM30.86,53.63h0Z"/><circle class="cls-1" cx="36.33" cy="80.31" r="9.85"/><path class="cls-1" d="M86.16,11.84H60.72a2,2,0,0,0-2,2v85.7a2,2,0,0,0,2,2H86.16a2,2,0,0,0,2-2V13.84A2,2,0,0,0,86.16,11.84ZM73.38,90.17a9.85,9.85,0,1,1,9.85-9.85A9.85,9.85,0,0,1,73.38,90.17Zm9.85-27.9a1,1,0,0,1-1,1H64.07a1,1,0,0,1-1-1V33.17a1,1,0,0,1,1-1H82.26a1,1,0,0,1,1,1ZM63.31,24.52h0Zm0-6.27h0Z"/><path class="cls-1" d="M82.26,32.19H64.07a1,1,0,0,0-1,1v29.1a1,1,0,0,0,1,1H82.26a1,1,0,0,0,1-1V33.17A1,1,0,0,0,82.26,32.19ZM67.91,53.63h0Z"/><circle class="cls-1" cx="73.38" cy="80.31" r="9.85"/></svg>