<svg id="Layer_1" data-name="Layer 1" xmlns="http://www.w3.org/2000/svg" viewBox="0 0 113.39 113.39"><defs><style>.cls-1{fill:#a31850;}.cls-2{fill:#fff;}</style></defs><path class="cls-1" d="M17.67,63.68l-2.79.78a16.32,16.32,0,0,0,1.09,3l2.79-1.09A13.71,13.71,0,0,1,17.67,63.68Z"/><path class="cls-1" d="M24.65,80.29a13.78,13.78,0,0,0,2.18,2.18l2-2.18-2-2Z"/><path class="cls-1" d="M43.59,13.23l-.93-2.79a23.76,23.76,0,0,0-3,.93l1.09,2.79Z"/><path class="cls-1" d="M20,69l-2.65,1.4c.47.93,1.09,1.7,1.56,2.65l2.48-1.56C20.93,70.66,20.46,69.74,20,69Z"/><path class="cls-1" d="M23.1,73.76l-2.48,1.7c.62.93,1.25,1.7,1.87,2.48l2.32-1.87C24.19,75.32,23.72,74.54,23.1,73.76Z"/><path class="cls-1" d="M36.27,85.44l-.6-.34-1.4,2.65,2.79,1.4.13-.34A7.62,7.62,0,0,1,36.27,85.44Z"/><path class="cls-1" d="M29.16,84.32c.78.62,1.56,1.25,2.48,1.87l1.7-2.48c-.78-.62-1.56-1.09-2.32-1.7Z"/><path class="cls-1" d="M16.27,58.08l-3,.62a21.76,21.76,0,0,0,.62,3l3-.78A16.85,16.85,0,0,1,16.27,58.08Z"/><path class="cls-1" d="M15.65,52.35l-3,.16a19.85,19.85,0,0,0,.16,3.1l3-.47C15.8,54.2,15.65,53.28,15.65,52.35Z"/><path class="cls-1" d="M95.93,46.25,97,46.13c0-.26-.08-.54-.11-.8A10.09,10.09,0,0,1,95.93,46.25Z"/><path class="cls-1" d="M60.82,9a20.06,20.06,0,0,0-3.1-.31l-.16,3a18.34,18.34,0,0,1,3,.31Z"/><path class="cls-1" d="M83.33,78.11l2.18,2c.62-.78,1.4-1.56,2-2.32L85.2,75.94C84.57,76.72,83.95,77.5,83.33,78.11Z"/><path class="cls-1" d="M86.9,73.62l2.48,1.7a11.61,11.61,0,0,0,1.56-2.48l-2.48-1.56A21.66,21.66,0,0,1,86.9,73.62Z"/><path class="cls-1" d="M79,82l1.87,2.32c.78-.62,1.56-1.4,2.32-2l-2-2.18A23.2,23.2,0,0,1,79,82Z"/><path class="cls-1" d="M74.32,85.09l1.4,2.65c.93-.62,1.87-1.09,2.79-1.7l-1.7-2.48A20.68,20.68,0,0,1,74.32,85.09Z"/><path class="cls-1" d="M90,68.65,92.65,70c.47-.93.93-1.87,1.4-3L91.25,66C90.78,66.93,90.47,67.87,90,68.65Z"/><path class="cls-1" d="M93.58,57.94l3,.47c.16-.93.31-2,.47-3l-3-.31C93.88,56.07,93.74,57,93.58,57.94Z"/><path class="cls-1" d="M92.18,63.37,95,64.46c.31-1.09.62-2,.93-3.1l-3-.78A18.36,18.36,0,0,1,92.18,63.37Z"/><path class="cls-1" d="M45.77,9.49l.62,3a27.61,27.61,0,0,0,3-.62l-.47-3C47.78,9,46.69,9.35,45.77,9.49Z"/><path class="cls-1" d="M54.92,11.52v-3a19.85,19.85,0,0,0-3.1.16l.16,3A18.74,18.74,0,0,1,54.92,11.52Z"/><path class="cls-1" d="M66.87,10.27a21.43,21.43,0,0,0-3-.78l-.62,3c.93.31,1.87.47,2.79.78Z"/><path class="cls-2" d="M27.91,13.23a19.13,19.13,0,0,1,8.54,36.31l-3.1,7.61-9.46-5.89a19.23,19.23,0,0,1,4-38Z"/><path class="cls-1" d="M37.81,14.2l-.75-1.59-1.27.63a20.65,20.65,0,0,0-23,33.3c0,.93-.15,1.75-.15,2.71l3,.16a3.13,3.13,0,0,1,0-.39,21,21,0,0,0,7.6,3.51L34,59.36l3.57-8.7a20.71,20.71,0,0,0,.28-36.46ZM35.67,48.15l-.47.31-2.63,6.38L24.5,49.71h-.31a18,18,0,1,1,11.48-1.56Z"/><path class="cls-2" d="M81.94,13.23A19.13,19.13,0,0,0,73.4,49.54l3.1,7.61L86,51.26a19.23,19.23,0,0,0-4-38Z"/><polygon class="cls-1" points="94.19 52.04 97.15 52.19 97.15 49.09 94.19 49.23 94.19 52.04"/><path class="cls-1" d="M102.59,32.32A20.6,20.6,0,0,0,72,14.25l.78-1.64A20.94,20.94,0,0,0,70,11.38L68.9,14.17a20.79,20.79,0,0,1,2,.76,20.71,20.71,0,0,0-9.58,17.4,20.5,20.5,0,0,0,11,18.31l3.57,8.7,10.55-6.83A20.94,20.94,0,0,0,102.59,32.32ZM85.65,49.71h-.31l-8.07,5.13-2.65-6.36-.47-.31a17.28,17.28,0,0,1-9.94-15.83A17.69,17.69,0,1,1,85.65,49.71Z"/><path class="cls-2" d="M54.92,61.65a19.23,19.23,0,0,0-8.54,36.48l3.1,7.61,9.46-5.89a19.32,19.32,0,0,0-4-38.2Z"/><path class="cls-1" d="M48.87,107.92,45.3,99.23A20.67,20.67,0,1,1,75.57,80.92,20.9,20.9,0,0,1,59.44,101.1Zm6.06-44.71A17.69,17.69,0,0,0,37.23,80.91a17.24,17.24,0,0,0,9.94,15.83l.47.31,2.65,6.36,8.07-5.13h.31a17.73,17.73,0,0,0-3.73-35.06Z"/><circle class="cls-1" cx="27.91" cy="23.78" r="4.19"/><path class="cls-1" d="M17.83,40.7A10.11,10.11,0,0,1,38,40.7Z"/><circle class="cls-1" cx="81.94" cy="23.78" r="4.19"/><path class="cls-1" d="M92,40.7a10.11,10.11,0,0,0-20.19,0Z"/><circle class="cls-1" cx="54.92" cy="72.22" r="4.19"/><path class="cls-1" d="M65,89.3a10.11,10.11,0,0,0-20.19,0Z"/></svg>