<svg id="Layer_1" data-name="Layer 1" xmlns="http://www.w3.org/2000/svg" viewBox="0 0 113.39 113.39"><defs><style>.cls-1{fill:none;}.cls-2{fill:#a31850;}</style></defs><path class="cls-1" d="M90.64,64.23a2,2,0,1,0-1.22,3.9,2,2,0,0,0,1.22-3.9Z"/><path class="cls-1" d="M90.08,60.38l2,2.11c.21-.63.34-1.06.38-1.22C92.94,59.74,91.15,60.07,90.08,60.38Z"/><path class="cls-2" d="M31.79,53.77,28.58,64a140.31,140.31,0,0,1,24,4.69A139,139,0,0,1,75,78.53l3.26-10.45s-9.79-9.87-21.45-13.5S31.79,53.77,31.79,53.77Z"/><path class="cls-2" d="M97.56,68.23l-3.81-4L94.12,63s3.36-6.19-5.09-5a1.46,1.46,0,0,0-.86.39L63,32,15.82,42.4,28.79,54l.71-2.22s14.9-3.17,27.9.89S81.3,67.71,81.3,67.71l-1.2,3.9,9.73-1.89c-1.62,5.2-3.48,11.17-4.07,13L83,81.88l-2,6.45,4.5-1.4,3.3,3.84,2-6.45-3-.94,4.41-14.11ZM92,66.79a2,2,0,0,1-3.9-1.22A2,2,0,1,1,92,66.79Zm-1.9-6.41c1.07-.31,2.86-.64,2.38.89,0,.16-.17.59-.38,1.22Z"/></svg>