<svg id="Layer_1" data-name="Layer 1" xmlns="http://www.w3.org/2000/svg" viewBox="0 0 113.39 113.39"><defs><style>.cls-1{fill:#fff;}.cls-2{fill:#a31850;}</style></defs><path class="cls-1" d="M43.21,51.21q0-11.19,0-22.38a6,6,0,0,1,.21-1.9,5.5,5.5,0,0,1,1.92-2.75,4.31,4.31,0,0,1,6.1.7,5.05,5.05,0,0,1,1.21,3.23q0,2.34,0,4.69.11,13.53.22,27.07A15,15,0,0,0,53,61.68a1.9,1.9,0,0,0,2.82,1.42,1.75,1.75,0,0,0,.95-1.34,7.63,7.63,0,0,0,0-1.06q0-5,0-10c0-.32,0-.64,0-1a4.38,4.38,0,0,1,3.1-4.15,5,5,0,0,1,3.44.08,4.47,4.47,0,0,1,2.91,4.19c0,4,0,8,0,11.94,0,.32,0,.64,0,1A1.83,1.83,0,0,0,68,64.43,1.87,1.87,0,0,0,70.15,63a4.88,4.88,0,0,0,.08-1.06c0-2.49,0-5,0-7.46a5.8,5.8,0,0,1,.2-1.57,4.11,4.11,0,0,1,2.16-2.52,4.82,4.82,0,0,1,4.32-.17,4.24,4.24,0,0,1,2.75,4.07c0,2.91,0,5.83,0,8.74,0,.28,0,.57,0,.85a1.81,1.81,0,0,0,1.64,1.68,1.91,1.91,0,0,0,2.33-2c0-1.38,0-2.77,0-4.16a4,4,0,0,1,.26-1.78,7.36,7.36,0,0,1,.84-1.47,3.79,3.79,0,0,1,6.13.23,5.48,5.48,0,0,1,.95,2.68c.08,1,.15,2,.15,3,0,4.55.06,9.09,0,13.64q-.09,5.86-.63,11.7c-.22,2.37-.48,4.73-.82,7.09a10.18,10.18,0,0,1-8.76,8.77,15.2,15.2,0,0,1-1.8.13c-9.41,0-18.83,0-28.24,0a10.28,10.28,0,0,1-9.75-6A49.7,49.7,0,0,0,33.35,85a32.39,32.39,0,0,0-10-7.18,3.18,3.18,0,0,1-2-2.33,2,2,0,0,1,.57-2,4.82,4.82,0,0,1,1.6-1,11.24,11.24,0,0,1,4.05-.79,17.25,17.25,0,0,1,3.91.39A23,23,0,0,1,37,73.84a11.12,11.12,0,0,1,2.94,1.9,3.1,3.1,0,0,0,.32.28,1.85,1.85,0,0,0,2.93-1.25,7.09,7.09,0,0,0,0-1.06Q43.21,62.46,43.21,51.21Z"/><circle class="cls-2" cx="48.47" cy="28.1" r="24.92"/><circle class="cls-1" cx="48.14" cy="28.29" r="21.25"/><circle class="cls-2" cx="48.19" cy="28.22" r="15.5"/><circle class="cls-1" cx="47.95" cy="28.09" r="11.67"/><rect class="cls-1" x="37.96" y="18.67" width="20.4" height="39.75" rx="7.48" ry="7.48"/><rect class="cls-1" x="53" y="39.76" width="17.13" height="18.66" rx="4.7" ry="4.7"/><path class="cls-2" d="M39.38,70.75a7.17,7.17,0,0,0,.08-.76c0-2,0-3.91,0-5.86,0-1.49,0-3,0-4.48q0-14.5,0-29a33.46,33.46,0,0,1,.07-3.4,8.93,8.93,0,0,1,7.9-7.76,7.45,7.45,0,0,1,5.64,1.8,8.84,8.84,0,0,1,3.33,6.87c.07,2.63,0,5.26,0,7.89q0,3,0,6.07c0,.24,0,.49,0,.83a7.17,7.17,0,0,0,.71-.29,8.87,8.87,0,0,1,4.61-1.09,8.43,8.43,0,0,1,7.59,5.3c.09.23.17.46.27.73.4,0,.65-.27.94-.43a8.6,8.6,0,0,1,8-.27,8,8,0,0,1,4.29,4.65l.28.76a3.26,3.26,0,0,0,.57-.23A7.68,7.68,0,0,1,94.64,55.4a10.34,10.34,0,0,1,1,4.11c.25,6.54.22,13.07,0,19.61-.15,3.9-.42,7.8-.84,11.69a48.38,48.38,0,0,1-.67,5.07,13.86,13.86,0,0,1-6.62,9.26,13.35,13.35,0,0,1-6.78,2H52a15.23,15.23,0,0,1-3.91-.39,14.06,14.06,0,0,1-9.36-7.46A54.48,54.48,0,0,0,35.11,93a37.94,37.94,0,0,0-7.93-8.57,26,26,0,0,0-5.27-3.2,7.19,7.19,0,0,1-2.52-1.74,6.44,6.44,0,0,1-1.56-6.13,5.71,5.71,0,0,1,2.24-3.15,10.38,10.38,0,0,1,3.74-1.74,17.36,17.36,0,0,1,6.56-.34,27.19,27.19,0,0,1,8.56,2.47A3.78,3.78,0,0,0,39.38,70.75Zm3.83-19.54q0,11.24,0,22.49a7.09,7.09,0,0,1,0,1.06A1.85,1.85,0,0,1,40.25,76a3.1,3.1,0,0,1-.32-.28A11.12,11.12,0,0,0,37,73.84a23,23,0,0,0-5.47-1.74,17.25,17.25,0,0,0-3.91-.39,11.24,11.24,0,0,0-4.05.79,4.82,4.82,0,0,0-1.6,1,2,2,0,0,0-.57,2,3.18,3.18,0,0,0,2,2.33,32.39,32.39,0,0,1,10,7.18A49.7,49.7,0,0,1,42,97.34a10.28,10.28,0,0,0,9.75,6c9.41,0,18.83,0,28.24,0a15.2,15.2,0,0,0,1.8-.13,10.18,10.18,0,0,0,8.76-8.77c.34-2.35.6-4.72.82-7.09q.53-5.84.63-11.7c.07-4.55,0-9.09,0-13.64,0-1-.07-2-.15-3a5.48,5.48,0,0,0-.95-2.68,3.79,3.79,0,0,0-6.13-.23,7.36,7.36,0,0,0-.84,1.47,4,4,0,0,0-.26,1.78c0,1.39,0,2.77,0,4.16a1.91,1.91,0,0,1-2.33,2,1.81,1.81,0,0,1-1.64-1.68c0-.28,0-.57,0-.85,0-2.91,0-5.83,0-8.74a4.24,4.24,0,0,0-2.75-4.07,4.82,4.82,0,0,0-4.32.17,4.11,4.11,0,0,0-2.16,2.52,5.8,5.8,0,0,0-.2,1.57c0,2.49,0,5,0,7.46A4.88,4.88,0,0,1,70.15,63,1.87,1.87,0,0,1,68,64.43a1.83,1.83,0,0,1-1.73-1.71c0-.32,0-.64,0-1,0-4,0-8,0-11.94a4.47,4.47,0,0,0-2.91-4.19,5,5,0,0,0-3.44-.08,4.38,4.38,0,0,0-3.1,4.15c0,.32,0,.64,0,1q0,5,0,10a7.63,7.63,0,0,1,0,1.06,1.75,1.75,0,0,1-.95,1.34A1.9,1.9,0,0,1,53,61.68a15,15,0,0,1-.07-1.81q-.11-13.53-.22-27.07,0-2.34,0-4.69a5.05,5.05,0,0,0-1.21-3.23,4.31,4.31,0,0,0-6.1-.7,5.5,5.5,0,0,0-1.92,2.75,6,6,0,0,0-.21,1.9Q43.21,40,43.21,51.21Z"/></svg>