<svg id="Layer_1" data-name="Layer 1" xmlns="http://www.w3.org/2000/svg" viewBox="0 0 113.39 113.39"><defs><style>.cls-1{fill:#a31850;}</style></defs><path class="cls-1" d="M86.45,11.58a11.27,11.27,0,0,0-10.87,8.47H50.25a6.93,6.93,0,0,0-4.93,2L9.07,58.35a5.57,5.57,0,0,0,0,7.87l34,34a5.57,5.57,0,0,0,7.87,0L87.14,63.92a6.93,6.93,0,0,0,2-4.93V36a18.33,18.33,0,0,0,3.06-2,14,14,0,0,0,5.42-11.26A11.22,11.22,0,0,0,86.45,11.58ZM86.54,59a4.3,4.3,0,0,1-1.27,3.06L49,98.3a2.92,2.92,0,0,1-4.12,0l-34-34a2.92,2.92,0,0,1,0-4.12L47.19,24a4.3,4.3,0,0,1,3.06-1.27H83.63a2.92,2.92,0,0,1,2.91,2.91v8.7a24.6,24.6,0,0,1-7.3,1.7,7,7,0,1,0-.17,2.68,27.68,27.68,0,0,0,7.47-1.53ZM72,38.21a22.55,22.55,0,0,0,4.22.52,4.32,4.32,0,1,1,.32-2.64,20,20,0,0,1-3.95-.46A1.32,1.32,0,0,0,72,38.21ZM90.6,32a14.81,14.81,0,0,1-1.41,1V25.62a5.57,5.57,0,0,0-5.56-5.56H78.34A8.56,8.56,0,0,1,95,22.79,11.24,11.24,0,0,1,90.6,32Zm0,0"/></svg>