<svg id="Layer_1" data-name="Layer 1" xmlns="http://www.w3.org/2000/svg" viewBox="0 0 113.39 113.39"><defs><style>.cls-1{fill:#a31850;}</style></defs><path class="cls-1" d="M15,99.23h-.19a1.43,1.43,0,0,0,0,2.87H15a1.43,1.43,0,1,0,0-2.87Zm0,0"/><path class="cls-1" d="M95.14,11.29H22.49a9.09,9.09,0,0,0-9.08,9.08V72a9.09,9.09,0,0,0,9.08,9.08h3.82a1.43,1.43,0,0,0,0-2.87H22.49A6.22,6.22,0,0,1,16.28,72V20.37a6.22,6.22,0,0,1,6.21-6.21H95.14a6.22,6.22,0,0,1,6.21,6.21V72a6.24,6.24,0,0,1-3.11,5.38,1.43,1.43,0,0,0,1.44,2.48A9.11,9.11,0,0,0,104.22,72V20.37a9.09,9.09,0,0,0-9.08-9.08Zm0,0"/><path class="cls-1" d="M49.16,36.14a1.43,1.43,0,1,0,0,2.87h.19a1.43,1.43,0,1,0,0-2.87Zm0,0"/><path class="cls-1" d="M91.31,70.55a1.43,1.43,0,0,0,0,2.87,5.26,5.26,0,0,0,5.26-5.26v-44a5.26,5.26,0,0,0-5.26-5.26h-65a5.26,5.26,0,0,0-5.26,5.26v44a5.26,5.26,0,0,0,5.26,5.26h3.82a1.43,1.43,0,1,0,0-2.87H26.32a2.39,2.39,0,0,1-2.39-2.39v-44a2.39,2.39,0,0,1,2.39-2.39h65A2.39,2.39,0,0,1,93.7,24.2v44a2.39,2.39,0,0,1-2.39,2.39Zm0,0"/><path class="cls-1" d="M55.09,36.14a1.43,1.43,0,0,0,0,2.87H68.47a1.43,1.43,0,0,0,0-2.87Zm0,0"/><path class="cls-1" d="M97,99.23H94.66V87.28a18.67,18.67,0,0,0-11.3-17.13l-.21-.09-.7-.28a12.9,12.9,0,1,0-12.86,0l-.7.28-.21.09a18.74,18.74,0,0,0-7,5.23,18.62,18.62,0,0,0-7.11-5.28l-.07,0-.74-.29A12.9,12.9,0,0,0,47.34,45.7H37.79a9.09,9.09,0,0,0-9.08,9.08V58.6A1.43,1.43,0,0,0,30.14,60h4.38a12.92,12.92,0,0,0,6.39,9.75l-.7.28-.21.09a18.67,18.67,0,0,0-11.3,17.13V99.23H20.58a1.43,1.43,0,0,0,0,2.87H97a1.43,1.43,0,0,0,0-2.87ZM76,68.64a10,10,0,0,1-4.86-1.26,13,13,0,0,0,9-7.34H86A10.05,10.05,0,0,1,76,68.64Zm5.09,3.71a5.26,5.26,0,0,1-10.18,0,15.71,15.71,0,0,1,10.18,0ZM68.37,64.82l-.21,0A10,10,0,1,1,86,57.17h-4.9a12.93,12.93,0,0,0,.23-2.39,1.43,1.43,0,0,0-2.87,0,10,10,0,0,1-10,10Zm-21,3.82a10,10,0,0,1-4.86-1.26,13,13,0,0,0,9-7.34h5.8a10,10,0,0,1-9.93,8.6Zm5.09,3.71a5.26,5.26,0,0,1-10.18,0,15.75,15.75,0,0,1,10.18,0ZM31.57,57.17V54.78a6.22,6.22,0,0,1,6.21-6.21H44V51a6.22,6.22,0,0,1-6.21,6.21Zm8.12,7.65-.21,0A10,10,0,0,1,37.41,60h.37A9.09,9.09,0,0,0,46.87,51V48.57h.48a10.05,10.05,0,0,1,9.93,8.6h-4.9a13,13,0,0,0,.23-2.39,1.43,1.43,0,0,0-2.87,0,10,10,0,0,1-10,10ZM57.38,87.28V99.23H31.57V87.28a15.78,15.78,0,0,1,8-13.74,8.12,8.12,0,0,0,15.46,0A15.78,15.78,0,0,1,60,77.82a18.53,18.53,0,0,0-2.58,9.46ZM91.79,99.23H60.25V87.28a15.78,15.78,0,0,1,8-13.74,8.12,8.12,0,0,0,15.45,0,15.78,15.78,0,0,1,8,13.74Zm0,0"/><path class="cls-1" d="M76.5,29.93a1.43,1.43,0,0,0-1.43-1.43H42.57a1.43,1.43,0,1,0,0,2.87h32.5a1.43,1.43,0,0,0,1.43-1.43Zm0,0"/></svg>