<svg xmlns="http://www.w3.org/2000/svg" viewBox="0 0 113.39 113.39"><defs><style>.cls-1{fill:#a31850;}</style></defs><g id="_1" data-name="1"><path class="cls-1" d="M78.06,20.23v28l4.84-4.84V20.23a6.46,6.46,0,0,0-6.44-6.46H63.77v4.84H76.45A1.62,1.62,0,0,1,78.06,20.23Z"/><path class="cls-1" d="M82.89,72.44v0l-4.84,4.84V92.87a1.62,1.62,0,0,1-1.61,1.61H19.62A1.62,1.62,0,0,1,18,92.87V20.23a1.62,1.62,0,0,1,1.62-1.62H32.31V13.77H19.62a6.47,6.47,0,0,0-6.46,6.46V92.87a6.46,6.46,0,0,0,6.46,6.44H76.45a6.45,6.45,0,0,0,6.44-6.44v-12l0-8.47Z"/><path class="cls-1" d="M38.77,20.23H57.29a1.65,1.65,0,0,0,1.64-1.62V13.77a1.65,1.65,0,0,0-1.64-1.61H38.77a1.64,1.64,0,0,0-1.63,1.61v4.84A1.64,1.64,0,0,0,38.77,20.23Z"/><path class="cls-1" d="M41,38.11l0-2.53,0,0v0l-1.21,1.22L38.63,38v3.66a.61.61,0,0,1-.6.61H30.33a.61.61,0,0,1-.6-.61V38.11L28.52,36.9l-.7-.7-.48-.51v0l0,0v6a3,3,0,0,0,3,3H38a3,3,0,0,0,3-3Z"/><polygon class="cls-1" points="32.08 32.15 33.27 33.36 34.95 33.36 36.16 32.15 36.86 31.45 37.36 30.97 37.33 30.97 37.36 30.94 33.56 30.94 30.9 30.92 30.92 30.94 30.88 30.94 32.08 32.15"/><path class="cls-1" d="M41,52.7a3,3,0,0,0-3-3H30.33a3,3,0,0,0-3,3v7.69a3,3,0,0,0,3,3H38a3,3,0,0,0,3-3Zm-11.32,0a.6.6,0,0,1,.6-.6H38a.61.61,0,0,1,.6.6v7.69a.61.61,0,0,1-.6.6H30.33a.61.61,0,0,1-.6-.6Z"/><path class="cls-1" d="M38,68.42H30.33a3,3,0,0,0-3,3v7.69a3,3,0,0,0,3,3H38a3,3,0,0,0,3-3V71.45A3,3,0,0,0,38,68.42Zm-8.29,3a.6.6,0,0,1,.6-.6H38a.61.61,0,0,1,.6.6v7.69a.61.61,0,0,1-.6.6H30.33a.61.61,0,0,1-.6-.6Z"/><rect class="cls-1" x="47.47" y="33.09" width="21.01" height="2.65"/><rect class="cls-1" x="47.47" y="39.49" width="13.22" height="2.65"/><polygon class="cls-1" points="68.48 51.83 47.56 51.83 47.5 51.83 47.5 51.83 47.47 51.83 47.47 54.48 68.48 54.48 68.48 51.83"/><polygon class="cls-1" points="60.68 58.23 47.54 58.23 47.5 58.23 47.5 58.23 47.47 58.23 47.47 60.88 60.68 60.88 60.68 58.23"/><polygon class="cls-1" points="47.56 70.58 47.5 70.58 47.5 70.58 47.47 70.58 47.47 73.22 56.65 73.22 57.28 71.2 57.48 70.6 57.47 70.6 57.48 70.58 47.56 70.58"/><polygon class="cls-1" points="47.55 76.97 47.5 76.97 47.5 76.97 47.47 76.97 47.47 79.62 54.65 79.62 55.28 77.59 55.47 77 55.46 77 55.47 76.97 47.55 76.97"/><path class="cls-1" d="M41.57,28.43l-2.64,2.65-1.06,1.08-1.2,1.21-2.55,2.56-2.54-2.56-1.21-1.21-1-1L29.19,31h0l0,0-.52.53,0,0a3,3,0,0,0-.73.72l0,0-1.1,1.09.58.61.28.29.93.93,1.21,1.22,3.89,3.91a.7.7,0,0,0,.5.21.66.66,0,0,0,.5-.21l4-4,1.21-1.21L41,33.85h0l3-3Z"/><path class="cls-1" d="M104.55,43.85l-7.8-7.79a1.61,1.61,0,0,0-2.09.12L82.89,48l-4.84,4.84-17,17-.25.81L60,73.22,58.83,77,58,79.62l-.92,3a.94.94,0,0,0,0,.41.51.51,0,0,0,.06.19h0a.93.93,0,0,0,.15.23h0a.61.61,0,0,0,.16.15l.06,0a.75.75,0,0,0,.17.08l.1,0a.48.48,0,0,0,.18,0h.15a.58.58,0,0,0,.15,0l12.8-4,7-7,4.84-4.84,21.73-21.73a1.31,1.31,0,0,0,.17-.19A1.66,1.66,0,0,0,104.55,43.85ZM72.17,75.25l-.61-2,6.51-6.51,4.84-4.84,18.2-18.2L102.42,45,82.89,64.55l-1,1-3.84,3.83-4,4Zm-9.45,4.61A3.17,3.17,0,0,0,62,78.81a3,3,0,0,0-1.05-.71l1.52-4.87L63.16,71l.44-.44.86-.86,2.84.86.24.07v2.89h2.88l.81,2.67-1.44,1.44Zm37.54-37L82.89,60.23l-4.84,4.84-7.29,7.29H68.71v-2L78.06,61l4.84-4.84L98.21,40.82ZM82.89,54.47l-4.84,4.82L67.84,69.51l-1.5-.45-.48-.16-.16,0,0,0,6.94-7,5.47-5.47,4.84-4.84,6.42-6.41,6.63-6.63L97.38,40Z"/></g></svg>